# Blender v2.92.0 OBJ File: 'rudimentary_armchair_tris.blend'
# www.blender.org
mtllib rudimentary_armchair_tris.mtl
o Cube_Cube.001
v -1.000000 -1.000000 1.000000
v -1.000000 1.000000 1.000000
v -1.000000 -1.000000 -1.000000
v -1.000000 1.000000 -1.000000
v 1.000000 -1.000000 1.000000
v 1.000000 -1.000000 -1.000000
v -1.000000 -1.000000 0.000000
v -1.000000 0.000000 1.000000
v -1.000000 1.000000 0.000000
v -1.000000 0.000000 -1.000000
v 0.000000 -1.000000 -1.000000
v 1.000000 0.000000 -1.000000
v 1.000000 -1.000000 0.000000
v -0.500000 -0.500000 0.000000
v 1.000000 0.000000 1.000000
v 0.000000 -1.000000 1.000000
v -0.500000 0.000000 0.000000
v 0.000000 -1.000000 0.000000
v 0.000000 0.000000 1.000000
v -0.500000 0.000000 0.750000
v 0.000000 0.000000 -1.000000
v -1.000000 0.000000 0.000000
v -1.000000 -1.000000 0.750000
v -1.000000 0.500000 1.000000
v -1.000000 1.000000 -0.750000
v -1.000000 -0.500000 -1.000000
v -0.500000 -1.000000 -1.000000
v -0.500000 0.500000 0.000000
v 1.000000 -0.500000 -1.000000
v 1.000000 -1.000000 -0.750000
v -0.500000 -0.500000 -0.750000
v 1.000000 -0.500000 1.000000
v 0.500000 -1.000000 1.000000
v -0.500000 1.000000 1.000000
v -1.000000 -1.000000 -0.750000
v -1.000000 -0.500000 1.000000
v -1.000000 1.000000 0.750000
v -1.000000 0.500000 -1.000000
v 0.500000 -1.000000 -1.000000
v -0.500000 1.000000 -1.000000
v 0.000000 -0.500000 -0.750000
v 1.000000 -1.000000 0.750000
v 0.500000 -0.500000 -0.750000
v -0.500000 -1.000000 1.000000
v 0.500000 -0.500000 0.750000
v 0.000000 -0.500000 0.750000
v -0.500000 -0.500000 0.750000
v -0.500000 1.000000 0.000000
v 0.000000 -1.000000 0.750000
v 0.000000 -1.000000 -0.750000
v -0.500000 -1.000000 0.000000
v 0.500000 -1.000000 0.000000
v -0.500000 0.000000 1.000000
v 0.500000 0.000000 1.000000
v 0.000000 -0.500000 1.000000
v 1.000000 0.000000 0.750000
v 1.000000 0.000000 -0.750000
v 1.000000 -0.500000 0.000000
v -0.500000 0.500000 -0.750000
v 0.500000 0.000000 -1.000000
v -0.500000 0.000000 -1.000000
v 0.000000 -0.500000 -1.000000
v -0.500000 0.500000 0.750000
v -1.000000 0.000000 -0.750000
v -1.000000 0.000000 0.750000
v -1.000000 -0.500000 0.000000
v -1.000000 0.500000 0.000000
v -1.000000 0.500000 0.750000
v -1.000000 -0.500000 0.750000
v -1.000000 -0.500000 -0.750000
v -0.500000 0.500000 -1.000000
v -0.500000 -0.500000 -1.000000
v 0.500000 -0.500000 -1.000000
v 0.000000 0.000000 0.750000
v 1.000000 -0.500000 -0.750000
v 1.000000 -0.500000 0.750000
v 0.500000 -0.500000 1.000000
v -0.500000 -0.500000 1.000000
v 0.500000 -1.000000 -0.750000
v -0.500000 -1.000000 -0.750000
v -0.500000 -1.000000 0.750000
v -0.500000 1.000000 -0.750000
v 0.500000 0.000000 0.750000
v 0.500000 0.000000 -0.750000
v -0.500000 1.000000 0.750000
v 0.500000 -1.000000 0.750000
v -0.500000 0.500000 1.000000
v 0.000000 0.000000 -0.750000
v -0.500000 0.000000 -0.750000
v -1.000000 0.500000 -0.750000
v 0.000000 -0.500000 0.000000
v 0.500000 -0.500000 0.000000
vt 0.281250 0.500000
vt 0.250000 0.437500
vt 0.281250 0.437500
vt 0.562500 0.500000
vt 0.500000 0.437500
vt 0.562500 0.437500
vt 0.468750 0.000000
vt 0.500000 0.062500
vt 0.468750 0.062500
vt 0.468750 0.500000
vt 0.500000 0.562500
vt 0.468750 0.562500
vt 0.125000 0.406250
vt 0.062500 0.468750
vt 0.062500 0.406250
vt 0.375000 0.562500
vt 0.281250 0.562500
vt 0.468750 0.125000
vt 0.500000 0.187500
vt 0.468750 0.187500
vt 0.281250 0.125000
vt 0.375000 0.187500
vt 0.281250 0.187500
vt 0.281250 0.000000
vt 0.375000 0.062500
vt 0.281250 0.062500
vt 0.562500 0.375000
vt 0.500000 0.312500
vt 0.562500 0.312500
vt 0.687500 0.375000
vt 0.625000 0.312500
vt 0.687500 0.312500
vt 0.468750 0.875000
vt 0.500000 0.937500
vt 0.468750 0.937500
vt 0.625000 0.406250
vt 0.625000 0.375000
vt 0.687500 0.406250
vt 0.750000 0.468750
vt 0.687500 0.468750
vt 0.062500 0.375000
vt 0.000000 0.312500
vt 0.062500 0.312500
vt 0.187500 0.375000
vt 0.125000 0.312500
vt 0.187500 0.312500
vt 0.281250 0.625000
vt 0.375000 0.625000
vt 0.281250 0.375000
vt 0.250000 0.312500
vt 0.281250 0.312500
vt 0.468750 0.375000
vt 0.375000 0.312500
vt 0.468750 0.312500
vt 0.375000 0.437500
vt 0.468750 0.437500
vt 0.375000 0.375000
vt 0.500000 0.375000
vt 0.500000 0.500000
vt 0.375000 0.250000
vt 0.468750 0.250000
vt 0.500000 0.250000
vt 0.250000 0.250000
vt 0.281250 0.250000
vt 0.750000 0.375000
vt 0.750000 0.406250
vt 0.250000 0.375000
vt 0.250000 0.500000
vt 0.187500 0.437500
vt 0.125000 0.250000
vt 0.187500 0.250000
vt 0.000000 0.250000
vt 0.062500 0.250000
vt 0.125000 0.375000
vt 0.250000 0.562500
vt 0.250000 0.625000
vt 0.468750 0.625000
vt 0.281250 0.937500
vt 0.375000 1.000000
vt 0.281250 1.000000
vt 0.250000 0.937500
vt 0.250000 1.000000
vt 0.250000 0.875000
vt 0.500000 1.000000
vt 0.468750 1.000000
vt 0.375000 0.937500
vt 0.562500 0.406250
vt 0.625000 0.250000
vt 0.687500 0.250000
vt 0.750000 0.312500
vt 0.750000 0.250000
vt 0.562500 0.250000
vt 0.375000 0.125000
vt 0.250000 0.062500
vt 0.250000 0.125000
vt 0.250000 0.000000
vt 0.250000 0.187500
vt 0.625000 0.468750
vt 0.281250 0.687500
vt 0.000000 0.406250
vt 0.000000 0.468750
vt 0.281250 0.750000
vt 0.375000 0.687500
vt 0.375000 0.750000
vt 0.562500 0.468750
vt 0.500000 0.625000
vt 0.468750 0.687500
vt 0.375000 0.500000
vt 0.500000 0.125000
vt 0.375000 0.000000
vt 0.187500 0.406250
vt 0.125000 0.468750
vt 0.250000 0.687500
vt 0.000000 0.375000
vt 0.468750 0.750000
vt 0.281250 0.875000
vt 0.281250 0.812500
vt 0.375000 0.875000
vt 0.375000 0.812500
vt 0.468750 0.875000
vt 0.468750 0.812500
vt 0.500000 0.000000
vt 0.500000 0.875000
vt 0.187500 0.500000
vt 0.281250 0.875000
vt 0.500000 0.687500
vt 0.187500 0.468750
vn -1.0000 0.0000 0.0000
vn 0.0000 0.0000 1.0000
vn 0.0000 -1.0000 0.0000
vn 0.0000 1.0000 0.0000
vn 1.0000 0.0000 0.0000
vn 0.0000 0.0000 -1.0000
usemtl None
s off
f 25/1/1 38/2/1 90/3/1
f 34/4/2 24/5/2 87/6/2
f 42/7/3 33/8/3 86/9/3
f 37/10/4 34/11/4 85/12/4
f 88/13/2 43/14/2 84/15/2
f 25/1/4 48/16/4 82/17/4
f 49/18/3 44/19/3 81/20/3
f 50/21/3 51/22/3 80/23/3
f 30/24/3 52/25/3 79/26/3
f 53/27/2 36/28/2 78/29/2
f 54/30/2 55/31/2 77/32/2
f 56/33/5 32/34/5 76/35/5
f 54/30/4 74/36/4 19/37/4
f 83/38/6 76/39/6 45/40/6
f 60/41/6 29/42/6 73/43/6
f 61/44/6 62/45/6 72/46/6
f 59/47/5 48/16/5 28/48/5
f 64/49/1 26/50/1 70/51/1
f 65/52/1 66/53/1 69/54/1
f 37/10/1 67/55/1 68/56/1
f 68/56/1 22/57/1 65/52/1
f 24/5/1 65/52/1 8/58/1
f 2/59/1 68/56/1 24/5/1
f 69/54/1 7/60/1 23/61/1
f 36/28/1 23/61/1 1/62/1
f 8/58/1 69/54/1 36/28/1
f 70/51/1 3/63/1 35/64/1
f 66/53/1 35/64/1 7/60/1
f 22/57/1 70/51/1 66/53/1
f 83/38/4 15/65/4 56/66/4
f 38/2/6 61/44/6 10/67/6
f 4/68/6 71/69/6 38/2/6
f 72/46/6 11/70/6 27/71/6
f 26/50/6 27/71/6 3/63/6
f 10/67/6 72/46/6 26/50/6
f 73/43/6 6/72/6 39/73/6
f 62/45/6 39/73/6 11/70/6
f 21/74/6 73/43/6 62/45/6
f 88/13/4 60/41/4 21/74/4
f 40/75/5 59/47/5 71/76/5
f 28/48/5 85/12/5 63/77/5
f 75/78/5 13/79/5 30/80/5
f 29/81/5 30/80/5 6/82/5
f 12/83/5 75/78/5 29/81/5
f 76/35/5 5/84/5 42/85/5
f 58/86/5 42/85/5 13/79/5
f 19/37/4 20/87/4 53/27/4
f 77/32/2 16/88/2 33/89/2
f 32/90/2 33/89/2 5/91/2
f 15/65/2 77/32/2 32/90/2
f 78/29/2 1/62/2 44/92/2
f 55/31/2 44/92/2 16/88/2
f 19/37/2 78/29/2 55/31/2
f 79/26/3 18/93/3 50/21/3
f 39/94/3 50/21/3 11/95/3
f 6/96/3 79/26/3 39/94/3
f 80/23/3 7/60/3 35/64/3
f 27/97/3 35/64/3 3/63/3
f 11/95/3 80/23/3 27/97/3
f 81/20/3 1/62/3 23/61/3
f 51/22/3 23/61/3 7/60/3
f 18/93/3 81/20/3 51/22/3
f 83/38/6 46/98/6 74/36/6
f 28/48/5 89/99/5 59/47/5
f 4/68/4 82/17/4 40/75/4
f 57/100/2 43/14/2 75/101/2
f 31/102/5 17/103/5 14/104/5
f 74/36/6 47/105/6 20/87/6
f 87/106/5 20/107/5 63/77/5
f 85/12/5 87/106/5 63/77/5
f 9/108/4 85/12/4 48/16/4
f 86/9/3 16/109/3 49/18/3
f 52/25/3 49/18/3 18/93/3
f 13/110/3 86/9/3 52/25/3
f 87/6/2 8/58/2 53/27/2
f 21/74/4 89/111/4 88/13/4
f 89/111/2 41/112/2 88/13/2
f 61/113/5 59/47/5 89/99/5
f 60/41/4 57/100/4 12/114/4
f 14/104/5 20/107/5 47/115/5
f 90/3/1 10/67/1 64/49/1
f 67/55/1 64/49/1 22/57/1
f 9/108/1 90/3/1 67/55/1
f 20/107/5 28/48/5 63/77/5
f 43/116/4 58/86/4 75/78/4
f 41/117/4 92/118/4 43/116/4
f 91/119/4 31/102/4 14/104/4
f 47/115/4 91/119/4 14/104/4
f 58/86/4 45/120/4 76/35/4
f 92/118/4 46/121/4 45/120/4
f 25/1/1 4/68/1 38/2/1
f 34/4/2 2/59/2 24/5/2
f 42/7/3 5/122/3 33/8/3
f 37/10/4 2/59/4 34/11/4
f 88/13/2 41/112/2 43/14/2
f 25/1/4 9/108/4 48/16/4
f 49/18/3 16/109/3 44/19/3
f 50/21/3 18/93/3 51/22/3
f 30/24/3 13/110/3 52/25/3
f 53/27/2 8/58/2 36/28/2
f 54/30/2 19/37/2 55/31/2
f 56/33/5 15/123/5 32/34/5
f 54/30/4 83/38/4 74/36/4
f 83/38/6 56/66/6 76/39/6
f 60/41/6 12/114/6 29/42/6
f 61/44/6 21/74/6 62/45/6
f 59/47/5 82/17/5 48/16/5
f 64/49/1 10/67/1 26/50/1
f 65/52/1 22/57/1 66/53/1
f 37/10/1 9/108/1 67/55/1
f 68/56/1 67/55/1 22/57/1
f 24/5/1 68/56/1 65/52/1
f 2/59/1 37/10/1 68/56/1
f 69/54/1 66/53/1 7/60/1
f 36/28/1 69/54/1 23/61/1
f 8/58/1 65/52/1 69/54/1
f 70/51/1 26/50/1 3/63/1
f 66/53/1 70/51/1 35/64/1
f 22/57/1 64/49/1 70/51/1
f 83/38/4 54/30/4 15/65/4
f 38/2/6 71/69/6 61/44/6
f 4/68/6 40/124/6 71/69/6
f 72/46/6 62/45/6 11/70/6
f 26/50/6 72/46/6 27/71/6
f 10/67/6 61/44/6 72/46/6
f 73/43/6 29/42/6 6/72/6
f 62/45/6 73/43/6 39/73/6
f 21/74/6 60/41/6 73/43/6
f 88/13/4 84/15/4 60/41/4
f 40/75/5 82/17/5 59/47/5
f 28/48/5 48/16/5 85/12/5
f 75/78/5 58/86/5 13/79/5
f 29/81/5 75/78/5 30/80/5
f 12/83/5 57/125/5 75/78/5
f 76/35/5 32/34/5 5/84/5
f 58/86/5 76/35/5 42/85/5
f 19/37/4 74/36/4 20/87/4
f 77/32/2 55/31/2 16/88/2
f 32/90/2 77/32/2 33/89/2
f 15/65/2 54/30/2 77/32/2
f 78/29/2 36/28/2 1/62/2
f 55/31/2 78/29/2 44/92/2
f 19/37/2 53/27/2 78/29/2
f 79/26/3 52/25/3 18/93/3
f 39/94/3 79/26/3 50/21/3
f 6/96/3 30/24/3 79/26/3
f 80/23/3 51/22/3 7/60/3
f 27/97/3 80/23/3 35/64/3
f 11/95/3 50/21/3 80/23/3
f 81/20/3 44/19/3 1/62/3
f 51/22/3 81/20/3 23/61/3
f 18/93/3 49/18/3 81/20/3
f 83/38/6 45/40/6 46/98/6
f 28/48/5 17/103/5 89/99/5
f 4/68/4 25/1/4 82/17/4
f 57/100/2 84/15/2 43/14/2
f 31/102/5 89/99/5 17/103/5
f 74/36/6 46/98/6 47/105/6
f 87/106/5 53/126/5 20/107/5
f 85/12/5 34/11/5 87/106/5
f 9/108/4 37/10/4 85/12/4
f 86/9/3 33/8/3 16/109/3
f 52/25/3 86/9/3 49/18/3
f 13/110/3 42/7/3 86/9/3
f 87/6/2 24/5/2 8/58/2
f 21/74/4 61/44/4 89/111/4
f 89/111/2 31/127/2 41/112/2
f 61/113/5 71/76/5 59/47/5
f 60/41/4 84/15/4 57/100/4
f 14/104/5 17/103/5 20/107/5
f 90/3/1 38/2/1 10/67/1
f 67/55/1 90/3/1 64/49/1
f 9/108/1 25/1/1 90/3/1
f 20/107/5 17/103/5 28/48/5
f 43/116/4 92/118/4 58/86/4
f 41/117/4 91/119/4 92/118/4
f 91/119/4 41/117/4 31/102/4
f 47/115/4 46/121/4 91/119/4
f 58/86/4 92/118/4 45/120/4
f 92/118/4 91/119/4 46/121/4
